<?xml version="1.0" encoding="utf-8"?>

<svg xmlns="http://www.w3.org/2000/svg" xmlns:xlink="http://www.w3.org/1999/xlink" 
  height="512" width="512" viewBox="0 0 512 512">

  <rect width="512" height="512" stroke="red" fill="rgba(255,255,255,0.95)" opacity="0.95" ></rect>

  <path d="M256  64 H0 H512" stroke="lightgray" fill="white"></path>
  <path d="M256 128 H0 H512" stroke="lightgray" fill="white"></path>
  <path d="M256 192 H0 H512" stroke="lightgray" fill="white"></path>
  <path d="M256 256 H0 H512" stroke="lightgray" fill="white"></path>
  <path d="M256 320 H0 H512" stroke="lightgray" fill="white"></path>
  <path d="M256 384 H0 H512" stroke="lightgray" fill="white"></path>
  <path d="M256 448 H0 H512" stroke="lightgray" fill="white"></path>
  <path d="M64  0 V512" stroke="lightgray" fill="white"></path>
  <path d="M128  0 V512" stroke="lightgray" fill="white"></path>
  <path d="M195  0 V512" stroke="lightgray" fill="white"></path>
  <path d="M256  0 V512" stroke="lightgray" fill="white"></path>
  <path d="M320  0 V512" stroke="lightgray" fill="white"></path>
  <path d="M384  0 V512" stroke="lightgray" fill="white"></path>
  <path d="M448  0 V512" stroke="lightgray" fill="white"></path>


  <path d="M256 256 V270 V242 M256 256 H270 H242" stroke="black" fill="white"></path>

<defs>
    <path id="edgePath" d="M 85 192 A 100 55, 65, 0, 1, 102 102 A 100 55, 0, 0, 1, 175 128 A 100 25, 0, 0, 1, 265 120 A 30 25, 160, 0, 1, 350 120 A 25 20, 155, 0, 1, 430 150 A 25 40, 15, 1, 1, 435 230 A 195 145, 0, 1, 1, 85 192" stroke-width="10" stroke="red
" fill="none" opacity="1"/>
  </defs>
  <use xlink:href="#edgePath"/>

  <circle id="c" cx="85" cy="192" r="1" stroke="red" fill="none">
    <animate attributeName="r"   repeatCount="indefinite"/>
  </circle>

  <circle cx="0" cy="0" r="20" stroke="blue" fill="none">
    <animateMotion dur="15s" repeatCount="indefinite" rotate="auto">
      <mpath xlink:href="#edgePath"/>
    </animateMotion>
    <animate attributeName="r"  dur="3s" repeatCount="indefinite"/>
  </circle>
</svg>
