<?xml version="1.0" encoding="utf-8"?>
<!-- Generator: Adobe Illustrator 16.0.0, SVG Export Plug-In . SVG Version: 6.00 Build 0)  -->
<!DOCTYPE svg PUBLIC "-//W3C//DTD SVG 1.1//EN" "http://www.w3.org/Graphics/SVG/1.1/DTD/svg11.dtd">
<svg version="1.1" id="圖層_1" xmlns="http://www.w3.org/2000/svg" xmlns:xlink="http://www.w3.org/1999/xlink" x="0px" y="0px"
	 width="450px" height="450px" viewBox="0 0 450 450" enable-background="new 0 0 450 450" xml:space="preserve">
<g>

<path fill-rule="evenodd" clip-rule="evenodd" fill="#231815" d="M0,225.395c0-5.638,0-11.275,0-16.913
		c2.116-17.777,13.095-27.347,28.263-33.051c4.121-1.321,8.225-2.728,12.629-2.466c10.294,1.241,19.555,5.154,28.02,12.663
		c0.817-3.894-0.009-6.874-0.362-9.734c-2.753-22.298,0.687-43.959,5.907-65.458c0.442-1.824,0.83-3.653,1.126-5.504
		c5.506-15.265,13.698-29.036,22.051-42.718c25.435-33.487,59.157-52.022,99.091-59.174c5.694-1.02,11.61-0.346,17.309-1.738
		c2.257,0,4.515,0,6.773,0c2.68,1.53,5.58,0.354,8.355,0.727c3.526-0.409,7.159,0.861,10.609-0.727c4.063,0,8.128,0,12.191,0
		c6.366,1.399,12.925,0.783,19.304,1.863c36.62,6.202,68.05,22.412,92.38,52.192c9.298,11.922,16.917,24.901,22.667,39.061
		c12.546,35.333,15.372,71.301,5.41,107.748c-7.43,27.181-20.188,51.635-37.416,73.521c-1.286,1.634-2.559,3.277-3.815,4.938
		c-5.014,6.632-4.551,17.032,1.828,22.291c10.478,8.638,19.655,18.643,29.021,28.459c3.13,3.281,6.342,4.464,10.858,3.954
		c5.432-0.613,11.318-2.034,16.004,2.806c0.514,1.664-0.011,2.905-1.418,3.785c-4.76,1.978-9.84-0.867-15.157,1.419
		c3.056,7.862,1.438,15.621-2.08,23.157c-1.164,6.287-6.432,8.782-10.527,12.358c-1.308,0.838-2.662,1.8-4.141,2.054
		c-4.292,0.73-5.839,3.318-5.297,7.602c-0.638,1.983-1.844,2.898-3.884,2.254c-1.979-1.426-2.606-3.723-3.39-5.883
		c-0.995-2.748-2.712-4.704-5.186-6.131c-5.648-3.261-6.945-2.562-7.167,4.05c-0.238,7.203,0.537,14.432-0.511,21.624
		c-1.106,2.529-2.266,4.987-5.646,4.195c-1.947-2.674-1.754-5.826-1.373-8.8c2.82-22.088,0.395-43.982-1.992-65.891
		c-0.339-3.108-2.003-7.677,1.907-8.549c4.681-1.045,4.639,4.049,5.111,7.322c1.247,8.57,2.853,17.176,2.408,25.856
		c-0.344,6.734,1.992,10.779,8.236,12.445c0.862,0.23,1.656,0.736,2.477,1.124c9.403,4.438,14.329,3.358,20.005-4.383
		c6.099-8.321,6.466-18.155,1.156-25.206c-8.687-11.535-19.293-20.994-29.903-30.479c-3.896-3.485-7.435-3.821-12.26-1.425
		c-14.369,7.131-30.014,9.51-45.19,11.898c14.877,5.754,24.786,16.807,29.233,32.931c7.289,26.435,3.008,50.596-13.784,72.118
		c-2.641,1.652-5.077,5.336-8.358,0.969c-0.082-3.481,2.58-5.308,4.339-7.657c15.912-21.272,17.732-44.853,8.668-69.111
		c-6.71-17.957-25.902-28.278-44.486-26.117c-2.198,0.256-4.532-0.28-6.593,0.977c2.161,17.256-3.726,31.769-15.78,38.985
		c-12.133,7.268-23.592,5.509-34.972-2.224c-7.924-5.388-15.737-25.399-12.038-37.14c-23.648-6.901-46.538,7.143-53.818,33.519
		c-5.543,20.089-3.938,39.463,7.109,57.466c1.308,2.133,2.984,4.24,2.009,7.115c-2.168,1.519-4.11,0.788-5.985-0.634
		c-14.821-22.118-17.352-46.011-8.242-70.934c5.535-15.142,15.194-26.764,29.614-31.854c-11.875-2.239-24.516-6.724-36.569-12.95
		c-8.02-4.145-10.562-8.901-9.273-18.162c0.548-3.945-0.27-6.562-3.219-9.188c-10.697-9.526-19.462-20.856-27.388-32.912
		c-1.782-2.71-3.342-5.635-5.947-7.613c-2.907-2.212-5.6-5.721-8.949-6.064c-4.401-0.45-4.172,5.236-6.404,7.898
		c-4.49,5.358-9.105,10.691-15.434,13.46c-5.979,2.615-6.629,3.874-1.434,10.087c7.549,9.027,15.308,17.869,23.113,26.641
		c12.711,14.288,25.401,28.575,37.414,44.32c1.759-2.883,1.305-5.838,2.167-8.363c0.748-2.188,1.448-4.971,4.379-4.293
		c2.472,0.571,2.318,3.188,2.182,5.289c-0.181,2.807-0.634,5.592-0.972,8.382c-2.44,20.125-0.901,40.329-1.219,60.501
		c-0.299,2.948,0.622,6.298-2.519,8.307c-1.205,0.196-2.119-0.282-2.796-1.304c-3.11-16.473-2.655-33.143-1.988-49.763
		c0.203-5.062-0.677-9.125-3.633-13.027c-7.826-10.329-16.004-20.365-24.581-29.999c-13.642-15.324-27.512-30.438-40.191-46.635
		c-3.559-4.548-7.423-6.516-12.79-5.899c-4.329,0.102-8.111-1.88-12.02-3.39C10.64,250.014,1.894,240.536,0.108,225.395z"/>

	<path fill-rule="evenodd" clip-rule="evenodd" fill="#FEFEFE" d="M28.577,177.095c-15.205,4.85-23.833,16.157-28.468,31.387
		c0-67.416,0.047-134.833-0.113-202.249c-0.01-4.203,0.813-5.06,4.854-5.05c69.764,0.163,139.527,0.117,209.292,0.117
		c-7.644,3.359-15.979,2.91-23.922,4.707c-34.33,7.773-63.95,23.9-86.932,52.106c-1.303,1.599-2.783,3.043-4.181,4.559
		c-10.6,13.034-23.283,24.045-33.103,37.891c-14.856,20.947-26.395,43.534-33.605,68.476
		C31.551,171.971,30.835,174.914,28.577,177.095z"/>

	<path fill-rule="evenodd" clip-rule="evenodd" fill="#FEFEFE" d="M0.108,225.395c4.005,12.884,11.335,22.948,22.991,29.346
		c1.771,1.835,1.617,4.272,1.933,6.576c6.925,50.529,27.383,94.077,62.841,129.494c31.085,31.049,67.917,50.73,110.556,58.459
		c3.954,0.717,9.232-1.08,11.648,4.447c-68.302,0-136.604-0.048-204.905,0.114c-4.245,0.01-5.18-1.021-5.171-5.399
		C0.15,374.086,0.108,299.74,0.108,225.395z"/>

	<path fill-rule="evenodd" clip-rule="evenodd" fill="#FEFEFE" d="M362.956,56.582C340.194,29.654,311.583,13.44,278.04,6.046
		c-8.615-1.899-17.558-1.738-25.969-4.746c63.894,0,127.789,0.049,191.682-0.117c4.04-0.011,4.863,0.847,4.853,5.05
		c-0.156,71.644-0.111,143.289-0.111,214.933c-3.726-0.422-2.823-3.645-3.048-5.883c-2.688-26.997-8.773-53.031-20.304-77.496
		c-8.56-18.16-19.325-34.774-32.08-50.091C383.755,76.518,372.494,67.467,362.956,56.582z"/>
	<path fill-rule="evenodd" clip-rule="evenodd" fill="#FEFEFE" d="M448.494,245.126c0,67.769-0.048,135.538,0.105,203.306
		c0.011,4.377-0.923,5.412-5.17,5.399c-61.979-0.167-123.96-0.114-185.939-0.114c-0.04-3.258,2.526-2.828,4.328-3.089
		c40.544-5.88,76.865-21.796,108.25-49.351c39.284-34.49,63.549-78.059,72.555-130.752c1.146-6.696,1.995-13.445,2.854-20.192
		C445.742,248.271,444.986,245.274,448.494,245.126z"/>
	<path fill-rule="evenodd" clip-rule="evenodd" fill="#1A7BBD" d="M448.494,245.126c-3.024,7.856-2.58,16.322-3.815,24.481
		c-13.863,91.622-86.024,166.768-174.28,181.518c-4.275,0.715-8.964-0.092-12.908,2.592c-15.804,0-31.609,0-47.413,0
		c-9.953-2.296-19.989-4.263-29.846-6.939c-83.62-22.716-145.768-96.093-156.833-185.023c-0.287-2.313-0.207-4.673-0.299-7.013
		c3.907,1.118,7.814,2.237,11.722,3.355c1.609,1.853,1.852,4.182,2.22,6.516c6.245,39.679,22.302,74.466,47.479,104.975
		c8.604,10.426,18.385,19.286,28.62,27.753c2.313,1.913,4.635,3.729,5.945,6.584c0.534,0.608,1.068,1.217,1.601,1.825
		c1.093,0.966,2.462,0.032,3.621,0.558c8.793,5.504,17.825,10.594,26.479,16.346c1.465,1.176,3.122,1.668,4.962,1.507
		c14.326,4.94,28.472,10.516,43.507,12.903c2.013,0.319,4.009,0.578,6.038,0.686c12.832,3.19,25.899,2.772,38.932,2.724
		c3.111,0.054,6.239,0.456,9.321-0.358c0.646-0.217,1.308-0.365,1.974-0.486c2.935-0.504,5.975-0.16,8.84-1.217
		c2.26-0.562,4.606-0.645,6.82-1.434c8.538-1.653,16.963-3.73,25.096-6.961c1.624-0.644,3.207-1.732,5.085-0.892
		c3.04,1.506,4.868-1.118,7.128-2.265c10.448-6.22,21.68-10.907,31.845-17.684c1.28-0.853,2.709-1.756,4.344-0.698
		c1.212-1.185,2.424-2.368,3.636-3.552c5.141-5.928,11.091-10.767,17.931-14.403c1.344-0.31,2.23-1.15,2.688-2.494
		c1.749-4.56,6.252-6.409,9.044-9.945c2.619-4.407,9.178-5.218,9.723-11.521c5.066-5.595,9.02-12.054,13.168-18.363
		c1.63-2.481,2.987-5.203,5.591-6.821c1.059-0.721,1.551-1.775,1.661-3.054c2.038-9.477,7.557-17.367,11.049-26.203
		c12.504-31.651,17.415-64.354,14.314-98.448c-3.786-41.607-18.251-78.625-43.333-111.214c-1.971-2.561-3.458-5.484-5.228-8.202
		c-6.078-13.344-13.592-25.781-21.966-37.675c38.965,30.316,64.34,70.227,77.384,118.804c3.646,13.585,5.688,27.478,6.781,41.53
		c0.113,1.484-0.667,3.396,1.373,4.25c0,1.409,0,2.819,0,4.228c-1.151,5.638-1.151,11.275,0,16.913
		C448.494,243.247,448.494,244.187,448.494,245.126z"/>
	<path fill-rule="evenodd" clip-rule="evenodd" fill="#B9D6EB" d="M448.494,242.308c-2.204-5.638-2.138-11.275,0-16.913
		C448.494,231.032,448.494,236.67,448.494,242.308z"/>
	<path fill-rule="evenodd" clip-rule="evenodd" fill="#4B4340" d="M239.88,1.301c-3.413,2.801-7.303,0.912-10.97,1.212
		c-0.341-0.313-0.437-0.597-0.283-0.852c0.144-0.241,0.281-0.36,0.416-0.36C232.654,1.301,236.269,1.301,239.88,1.301z"/>
	<path fill-rule="evenodd" clip-rule="evenodd" fill="#6F6866" d="M229.043,1.301c-0.021,0.407-0.066,0.812-0.133,1.214
		c-2.658-0.453-5.693,1.782-7.995-1.214C223.624,1.301,226.334,1.301,229.043,1.301z"/>
	<path fill-rule="evenodd" clip-rule="evenodd" fill="#CF112B" d="M347.209,187.216c-14.063,27.885-29.207,53.396-50.955,74.45
		c-8.43-22.635-38.187-30.974-58.126-16.477c-3.659,2.66-5.958,2.535-9.456,0.228c-10.736-7.087-22.7-8.97-35.086-7.173
		c-12.225,1.774-20.721,8.633-24.107,22.707c-23.017-20.842-40.039-45.293-55.18-73.1c24.929,3.072,47.007-5.814,69.821-9.127
		c41.875-6.081,83.479-5.854,124.77,4.714C320.962,186.529,333.308,187.455,347.209,187.216z"/>
	<path fill-rule="evenodd" clip-rule="evenodd" fill="#FEFEFE" d="M99.423,114.047c7.964-18.783,20.695-31.607,37.978-39.818
		c8.032-3.816,16.417-6.356,25.052-8.13c2.861-0.589,4.753-0.585,6.269,3.028c6.627,15.777,19.105,21.693,34.941,20.786
		c3.957-0.227,5.309-0.014,5.036,4.845c-0.741,13.245,5.351,21.769,17.666,25.398c3.104,0.914,4.334,1.964,4.275,5.515
		c-0.222,13.608-0.113,27.222-0.071,40.833c0.008,2.735,0.159,5.051-3.67,4.996c-29.998-0.434-58.953,7.131-88.238,12.342
		c-11.572,2.059-23.406,1.625-34.812-2.204c-19.016-6.383-28.727-27.282-21.849-46.867c5.281-15.039,19.997-20.91,33.29-13.255
		c1.138,0.654,2.354,2.159,3.496,0.762c1.525-1.863-0.459-2.933-1.569-3.84C112.179,114.319,106.133,113.92,99.423,114.047z"/>
	<path fill-rule="evenodd" clip-rule="evenodd" fill="#FEFEFE" d="M253.921,88.55c5.091,0.718,9.459,1.752,13.976,1.577
		c13.104-0.509,23.068-6.36,28.5-18.901c1.91-4.409,3.765-4.895,8.012-4.099c26.918,5.042,47.023,19.055,58.19,46.517
		c-5.228,0.519-10.148,0.867-14.261,3.814c-1.127,0.809-3.362,1.532-2.076,3.626c0.974,1.584,2.347,0.235,3.534-0.303
		c17.055-7.738,33.938,3.06,35.089,22.424c1.404,23.661-11.655,37.884-36.639,39.843c-13.369,1.048-26.699,0.229-39.645-3.207
		c-22.225-5.895-44.77-8.587-67.618-8.375c-5.803,0.054-7.057-1.893-6.874-7.54c0.415-12.664,0.153-25.351,0.111-38.029
		c-0.008-2.636-0.066-4.619,3.151-5.898C251.984,114.191,256.702,105.248,253.921,88.55z"/>
	<path fill-rule="evenodd" clip-rule="evenodd" fill="#FEFEFE" d="M384.922,94.257c4.887,3.239,7.863,8.326,11.096,13.019
		c41.669,60.458,51.209,126.041,28.215,196.506c-3.958,12.126-9.091,23.865-16.115,34.542c-5.02-1.755-10.385-2.651-15.316-1.119
		c-5.472,1.698-8.607-0.131-12.163-4.136c-9.631-10.855-19.483-21.578-31.397-29.809c-3.323-2.297-1.22-5.887-2.696-7.992
		c-6.278-8.945,0.919-13.399,5.205-19.021c28.712-37.663,46.854-79.255,43.903-128.623c-0.938-15.75-3.802-31.11-8.712-46.053
		C386.151,99.175,385.588,96.698,384.922,94.257z"/>
	<path fill-rule="evenodd" clip-rule="evenodd" fill="#FEFEFE" d="M90.878,179.263c5.622,3.149,10.352,5.932,15.745,6.861
		c3.461,0.598,4.53,3.434,6.001,6.07c15.039,26.938,32.257,52.099,55.404,72.291c43.166,37.652,99.661,34.188,138.618-8.399
		c16.787-18.353,29.566-39.609,40.888-61.844c2.714-5.33,5.638-8.982,11.789-9.749c3.911-0.487,7.646-2.509,12.104-4.067
		c0.373,11.498-2.053,22.32-4.935,33.002c-7.175,26.611-20.137,49.873-37.009,71.195c-6.686,8.45-14.94,10.392-24.13,11.804
		c-49.248,7.568-98.404,8.388-147.443-1.947c-6.379-1.345-11.724-4.223-16.552-8.797c-28.308-26.813-45.034-59.903-50.227-99.334
		c-0.153-1.16-0.197-2.34-0.246-3.512C90.847,181.91,90.878,180.982,90.878,179.263z"/>
	<path fill-rule="evenodd" clip-rule="evenodd" fill="#FEFEFE" d="M301.362,429.124c-9.188,5.968-19.652,7.479-30.029,9.29
		c-1.802,0.422-3.763,1.442-4.72-1.342c0.92-3.067,3.63-3.991,5.977-5.3c17.657-9.851,28.317-24.901,31.424-45.598
		c1.259-8.398-0.36-10.352-8.295-9.268c-33.001,4.514-66.157,2.518-99.246,2.239c-9.107-0.075-18.433-0.672-27.535-2.412
		c-4.371-0.836-5.836,0.953-5.889,5.637c-0.248,21.817,10.58,36.581,27.416,47.623c3.04,1.994,6.389,3.465,9.699,4.967
		c1.99,0.903,4.456,1.422,4.437,4.512c-16.24-1.455-31.486-6.829-46.547-12.884c-0.929-0.375-1.542-1.601-2.304-2.431
		c-9.723-15.203-15.265-31.579-13.472-50.176c1.49-15.466,6.443-29.264,17.887-39.691c9.37-8.539,19.746-14.688,33.075-11.592
		c3.712,0.863,7.569,1.049,12.648,1.714c-8.83,6.442-3.208,13.981-2.271,20.81c1.085,7.888,5.888,14.021,12.48,18.396
		c12.128,8.051,27.696,6.003,37.499-4.978c8.21-9.195,11.097-26.218,5.67-33.431c31-8.956,58.752,11.157,61.919,44.374
		C323.394,392.778,317.216,412.61,301.362,429.124z"/>
	<path fill-rule="evenodd" clip-rule="evenodd" fill="#009FE8" d="M150.787,422.652c-10.244-3.055-18.633-9.678-27.466-15.448
		c-1.575-3.178,0.302-6.771-1.105-9.969c-0.657-24.313-1.21-48.622,1.968-72.95c-5.288,4.174-2.562,11.067-5.763,16.523
		c-20.699-28.133-45.482-52.226-66.891-79.431c-1.067-1.355-4.489-3.409,0-4.92c12.921-4.351,21.288-13.599,26.337-26.65
		c7.365,4.987,14.263,9.781,19.092,17.711c7.633,12.531,17.264,23.491,28.188,33.086c2.711,2.381,3.563,4.257,2.385,8.139
		c-2.523,8.313-0.122,13.119,7.328,17.241c10.423,5.769,21.594,9.372,32.991,12.323c2.08,0.538,4.151,1.121,6.757,1.827
		C133.985,339.427,129.926,390.801,150.787,422.652z"/>
	<path fill-rule="evenodd" clip-rule="evenodd" fill="#009FE8" d="M329.442,289.866c17.343-20.233,30.206-42.609,38.205-67.933
		c4.175-13.217,6.839-26.732,7.606-40.617c0.15-2.746,0.759-4.845,2.825-6.744c14.854-13.653,15.822-49.907-8.913-58.908
		c-2.263-0.823-2.955-2.619-3.778-4.575c-11.702-27.831-32.855-42.671-61.009-47.59c-3.696-0.646-4.704-1.339-4.091-5.604
		c2.847-19.758-2.587-33.435-17.7-46.286c1.495-1.03,2.984-0.349,4.435,0.018c54.905,13.874,94.996,60.873,103.437,118.992
		c8.752,60.259-12.406,109.371-49.813,153.012C337.93,286.799,335.02,290.448,329.442,289.866z"/>
	<path fill-rule="evenodd" clip-rule="evenodd" fill="#FEFEFE" d="M119.086,403.924c-48.104-36.09-76.738-84.354-84.259-145.828
		c7.3-1.436,11.642,2.313,16.137,8.072c19.203,24.603,41.292,46.576,60.542,71.183c5.1,6.521,7.844,12.717,6.96,21.556
		C116.974,373.844,118.62,388.912,119.086,403.924z"/>
	<path fill-rule="evenodd" clip-rule="evenodd" fill="#009FE8" d="M344.679,408.478c-11.678,6.942-22.846,14.978-36.186,18.382
		c14.173-18.481,19.448-39.27,15.436-62.668c-3.207-18.692-12.279-32.497-29.419-39.986c-1.59-0.695-3.196-1.354-5.882-2.488
		c15.491-2.544,29.71-4.922,43.409-9.738c1.492-0.524,3.239-0.784,4.385-1.773c8.345-7.203,14.271-2.279,20.581,3.702
		c9.525,9.029,18.695,18.393,27.328,28.331c5.464,6.294,4.811,16.596-1.553,25.83c-6.111,8.868-11.795,10.042-20.714,7.08
		c-10.705-3.554-15.366-9.486-14.298-21.67c0.704-7.992-1.548-16.273-2.556-24.415c-0.167-1.343-0.542-3.137-2.135-3.118
		c-1.945,0.021-1.678,1.945-1.45,3.211C346.375,355.444,345.386,381.966,344.679,408.478z"/>
	<path fill-rule="evenodd" clip-rule="evenodd" fill="#009FE8" d="M115.052,264.977c-30.867-34.422-45.564-74.709-40.978-122.03
		c3.69-38.079,17.616-71.033,45.049-97.14c16.426-15.631,35.712-26.012,56.945-32.629c1.622-0.505,3.318-1.485,5.522,0.409
		c-3.657,3.521-7.244,6.993-9.948,11.278c-5.85,9.27-7.883,19.499-6.264,30.251c0.862,5.724-1.457,7.113-6.039,8.056
		c-22.45,4.616-41.607,15.034-55.235,34.844c-1.31,1.905-2.688,3.813-3.651,5.911c-3.208,6.991-7.364,12.671-13.527,17.645
		c-12.1,9.766-13.849,32.871-4.393,47.729c2.831,4.448,4.568,8.763,5.012,14.073c2.465,29.468,13.152,55.752,29.159,79.904
		C117.032,264.769,116.487,265.341,115.052,264.977z"/>
	<path fill-rule="evenodd" clip-rule="evenodd" fill="#FEFEFE" d="M39.686,178.823c20.222,0.03,36.431,16.993,36.381,38.07
		c-0.049,20.943-16.527,38.027-36.608,37.955c-19.985-0.072-36.624-17.469-36.537-38.204
		C3.008,195.779,19.521,178.792,39.686,178.823z"/>
	<path fill-rule="evenodd" clip-rule="evenodd" fill="#F94C06" d="M234.351,286.521c-22.791,0.734-41.142-7.393-58.123-19.896
		c-3.953-2.91-3.222-6.345-1.873-9.91c4.49-11.864,14.425-14.779,25.13-15.594c10.681-0.813,20.519,2.657,29.429,8.64
		c3.399,2.283,5.599,2.982,9.311-0.145c11.419-9.624,33.673-10.126,46.036-1.757c9.355,6.33,9.538,16.637,0.289,22.921
		C268.841,281.454,251.579,286.807,234.351,286.521z"/>
	<path fill-rule="evenodd" clip-rule="evenodd" fill="#FEFEFE" d="M234.533,49.515c0.082-6.253,0.764-11.332,2.183-16.297
		c3.238-11.339,9.617-19.547,21.2-22.062c12.358-2.681,22.709,1.385,30.749,11.332c10.978,13.577,11.983,36.626,2.521,51.329
		c-9.477,14.725-30.235,16.376-43.928,5.414C236.869,70.912,235.408,60.191,234.533,49.515z"/>
	<path fill-rule="evenodd" clip-rule="evenodd" fill="#FEFEFE" d="M230.76,47.182c-0.09,6.885-0.138,12.005-1.598,17.052
		c-1.482,5.117-3.339,9.585-8.784,11.428c-1.627,0.552-3.436,1.774-4.323,3.239c-4.418,7.288-11.099,7.844-18.339,7.355
		c-8.772-0.592-16.474-3.76-21.658-11.241c-17.461-25.188-4.335-59.711,21.517-64.08c16.909-2.856,30.67,9.014,32.805,28.13
		C230.741,42.319,230.691,45.624,230.76,47.182z"/>
	<path fill-rule="evenodd" clip-rule="evenodd" fill="#CF112B" d="M261.207,320.521c-4.029,0.931-5.458-0.794-7.093-2.55
		c-13.102-14.075-30.395-14.439-43.555-0.752c-2.322,2.414-4.397,3.18-7.644,2.903c-23.061-1.971-45.508-6.327-66.385-17.308
		c-2.651-1.396-5.307-2.789-5.984-6.188c-0.505-2.534-1.205-5.461,0.528-7.449c2.321-2.659,3.882,0.897,5.618,1.718
		c14.984,7.07,30.998,9.743,47.073,11.841c22.854,2.981,45.859,3.769,68.851,2.719c24.299-1.109,48.532-3.277,72.228-9.537
		c3.484-0.921,6.874-2.243,10.355-3.181c2.381-0.64,5.413-4.892,7.091,0.212c1.344,4.08,2.365,8.934-2.723,11.732
		c-8.049,4.429-16.809,6.553-25.613,8.623C296.113,317.497,278.008,319.519,261.207,320.521z"/>
	<path fill-rule="evenodd" clip-rule="evenodd" fill="#FEFEFE" d="M77.206,104.072c-0.412,9.359-4.126,18.007-5.327,27.226
		c-2.335,17.931-3.21,35.81-0.108,53.737c0.262,1.512,0.831,3.163-0.783,5.697c-7.901-9.896-18.346-14.507-30.182-16.028
		c-1.581-8.25,2.87-15.029,5.647-21.924c6.438-15.988,14.038-31.443,24.416-45.185C72.429,105.533,73.626,102.371,77.206,104.072z"
		/>
	<path fill-rule="evenodd" clip-rule="evenodd" fill="#1A7BBD" d="M77.206,104.072c-3.07,0.118-3.829,2.999-5.22,4.954
		c-14.19,19.933-24.513,41.87-31.179,65.679c-4.077,0.797-8.154,1.595-12.23,2.391C39.571,132.913,62.025,96.111,94.75,65.939
		c1.332-1.228,2.898-2.182,4.355-3.265C91.077,76.055,83.737,89.831,77.206,104.072z"/>
	<path fill-rule="evenodd" clip-rule="evenodd" fill="#CF112B" d="M231.984,117.087c-11.146,0.113-19.964-8.561-20.346-20.013
		c-0.357-10.708,9.208-20.937,19.655-21.021c10.671-0.087,20.209,9.428,20.367,20.316
		C251.828,107.736,243.055,116.974,231.984,117.087z"/>
	<path fill-rule="evenodd" clip-rule="evenodd" fill="#FAD81D" d="M233.091,335.532c6.763,0,13.525-0.037,20.29,0.017
		c2.839,0.022,4.464,1.037,4.44,4.607c-0.069,10.43-10.448,22.923-20.429,24.16c-1.045,0.131-2.627,0.845-2.728-0.761
		c-0.225-3.617-1.405-7.446,0.96-10.788c0.641-0.904,1.897-1.327,2.572-2.216c2.635-3.47,2.481-7.025-0.503-10.102
		c-3.029-3.124-6.599-3.149-9.715-0.266c-3.101,2.868-3.297,6.429-1.043,10.14c0.966,1.589,3.382,1.846,3.546,4.007
		c0.248,3.244,1.444,7.249-0.49,9.542c-2.09,2.477-5.477-0.088-7.994-1.188c-9.037-3.953-14.057-11.325-15.834-21.253
		c-0.611-3.406,0.364-5.354,3.948-5.531c7.657-0.381,15.312-0.854,22.965-1.29C233.083,334.919,233.086,335.226,233.091,335.532z"/>
	<path fill-rule="evenodd" clip-rule="evenodd" fill="#F8D61D" d="M255.164,325.708c-15.854-1.043-30.444-1.112-46.269,0.239
		c4.808-9.021,11.248-13.668,19.959-14.646C239.928,310.059,248.466,314.498,255.164,325.708z"/>
	<path fill-rule="evenodd" clip-rule="evenodd" fill="#009EE7" d="M254.699,8.227c-11.34,3.492-17.409,12.434-21.929,24.347
		c-4.167-12.985-11.242-21.604-23.098-25.693c15.086-2.399,30.024-1.994,44.973-1.137C255.577,6.55,255.569,7.379,254.699,8.227z"/>
	<path fill-rule="evenodd" clip-rule="evenodd" fill="#FCFCFC" d="M366.245,390.522c-5.268,5.755-11.216,10.595-17.931,14.401
		c0-10.392,0-20.786,0-31.278C358.594,375.121,364.549,380.459,366.245,390.522z"/>
	<path fill-rule="evenodd" clip-rule="evenodd" fill="#FBFCFC" d="M406.458,341.378c-4.048,8.879-10.03,16.376-15.819,24.014
		c-0.791,1.039-1.775,1.282-2.939,1.17c3.744-7.944,5.845-16.026,1.519-24.793C395.147,339.696,400.796,340.313,406.458,341.378z"/>
	<path fill-rule="evenodd" clip-rule="evenodd" fill="#EECD1C" d="M260.848,332.85c-19.253-2.486-36.755-1.811-55.913-0.236
		C214.187,326.872,251.892,326.949,260.848,332.85z"/>
	<path fill-rule="evenodd" clip-rule="evenodd" fill="#F0F1F2" d="M377.977,378.083c-1.204,5.1-5.223,7.421-9.046,9.941
		c-1.699-3.983-3.747-7.968,3.537-7.763C374.283,380.313,376.138,378.85,377.977,378.083z"/>
	<path fill-rule="evenodd" clip-rule="evenodd" fill="#7A6A5B" d="M236.451,345.805c-0.368,1.935-1.127,3.523-3.311,3.607
		c-2.336,0.091-3.941-1.074-3.963-3.543c-0.021-2.478,1.571-3.628,3.91-3.598C235.306,342.3,236.057,343.873,236.451,345.805z"/>
	<path fill-rule="evenodd" clip-rule="evenodd" fill="#DCDBDA" d="M81.177,217.275c1.524,3.905,3.048,7.81,5.061,12.966
		c-4.271-1.985-7.812-2.632-7.422-7.51C80.473,221.32,77.627,217.8,81.177,217.275z"/>
	<path fill-rule="evenodd" clip-rule="evenodd" fill="#CAC7C6" d="M232.104,65.154c3.117,1.821,2.215,4.944,4.397,6.792
		c-2.447,1.514-4.899,1.57-5.749,0.139C229.402,69.808,232.083,67.854,232.104,65.154z"/>
	<path fill-rule="evenodd" clip-rule="evenodd" fill="#0491D2" d="M115.052,264.977c0.551-0.567,1.102-1.133,1.653-1.699
		c2.623,2.638,4.942,5.497,6.176,9.227C119.582,270.72,117.095,268.101,115.052,264.977z"/>
	<path fill-rule="evenodd" clip-rule="evenodd" fill="#605856" d="M81.177,217.275c-2.276,1.121-0.815,3.993-2.361,5.456
		c0-2.866,0-5.732,0-8.81C80.658,214.658,80.935,215.956,81.177,217.275z"/>
	<path fill-rule="evenodd" clip-rule="evenodd" fill="#175A81" d="M122.216,397.235c1.823,3.147,0.966,6.618,1.105,9.969
		c-1.118-0.016-2.08-0.335-2.634-1.455C123.424,403.344,121.055,399.946,122.216,397.235z"/>
	<path fill-rule="evenodd" clip-rule="evenodd" fill="#0F648B" d="M254.699,8.227c-0.019-0.829-0.035-1.656-0.054-2.483
		c1.22-0.255,3.17-0.676,3.303,0.568C258.162,8.301,256.229,8.334,254.699,8.227z"/>
	<path fill-rule="evenodd" clip-rule="evenodd" fill="#251B18" d="M204.601,439.473c-3.284-2.966-7.671-3.503-11.361-5.61
		c-20.288-11.584-32.673-28.277-32.46-53.382c0.041-4.941,1.086-6.643,6.608-6.045c43.87,4.744,87.805,5.31,131.669,0.074
		c6.112-0.729,6.996,1.717,6.916,6.58c-0.31,18.887-8.442,33.658-22.177,45.453c-5.077,4.362-10.996,7.271-16.803,10.36
		c-1.405,1.436-3.186,2.111-5.017,2.684c-2.331,1.068-5.032,0.091-7.315,1.428l0.119-0.058c-3.032,1.897-6.58-0.26-9.652,1.326
		C231.559,442.293,217.946,442.972,204.601,439.473z"/>
	<path fill-rule="evenodd" clip-rule="evenodd" fill="#D9E2E8" d="M261.617,438.544c1.792-0.548,3.585-1.095,5.377-1.641
		c1.05,1.728,2.889,1.015,4.339,1.511c-2.069,1.653-4.566,1.16-6.897,1.505C263.149,440.227,261.71,440.881,261.617,438.544z"/>
	<path fill-rule="evenodd" clip-rule="evenodd" fill="#A2B9CA" d="M261.617,438.544c0.939,0.458,1.879,0.916,2.818,1.375
		c-3.096,1.939-6.485,1.036-9.773,1.096C256.559,438.903,259.351,439.519,261.617,438.544z"/>
	<path fill-rule="evenodd" clip-rule="evenodd" fill="#568DB3" d="M245.129,442.283c3.032-1.906,6.397-1.177,9.652-1.328
		C251.87,443.8,248.359,441.944,245.129,442.283z"/>
	<path fill-rule="evenodd" clip-rule="evenodd" fill="#362C29" d="M150.527,137.691c-12.38,0-24.76,0.044-37.139-0.05
		c-1.774-0.012-4.778,0.978-4.664-2.189c0.092-2.559,2.843-1.595,4.443-1.594c24.534,0.001,49.068,0.055,73.602,0.216
		c1.955,0.014,5.394-1.148,5.305,2.241c-0.071,2.739-3.27,1.597-5.085,1.612c-12.152,0.102-24.307,0.054-36.461,0.054
		C150.527,137.884,150.527,137.788,150.527,137.691z"/>
	<path fill-rule="evenodd" clip-rule="evenodd" fill="#2A201D" d="M194.108,157.29c-9.358,1.5-17.049,2.64-24.708,3.98
		c-18.223,3.19-36.431,6.472-54.642,9.732c-1.714,0.307-3.893,1.466-4.392-1.274c-0.269-1.478,1.551-1.893,2.931-2.143
		c24.643-4.476,49.228-9.321,74.049-12.67C189.009,154.689,190.829,154.237,194.108,157.29z"/>
	<path fill-rule="evenodd" clip-rule="evenodd" fill="#2A1F1C" d="M120.945,95.533c14.383,3.909,29.612,7.939,44.779,12.212
		c8.444,2.378,16.79,5.137,25.161,7.793c1.439,0.457,3.56,0.988,2.907,3.063c-0.717,2.275-2.584,0.878-3.958,0.41
		c-22.633-7.71-45.789-13.428-68.821-19.619c-1.479-0.397-4.146,0.013-4.089-2.644C116.967,94.709,118.82,95.433,120.945,95.533z"/>
	<path fill-rule="evenodd" clip-rule="evenodd" fill="#2C221F" d="M272.068,137.607c-1.141,0.337-2.405,0.375-2.662-1.115
		c-0.319-1.879,1.125-2.363,2.472-2.498c5.39-0.541,10.779-1.255,16.182-1.404c21.198-0.583,42.398-1.031,63.602-1.344
		c2.088-0.031,5.961-1.688,5.938,2.074c-0.019,2.813-3.699,1.685-5.755,1.694c-23.237,0.106-46.476,0.165-69.682,1.664
		C278.791,136.897,275.434,137.293,272.068,137.607z"/>
	<path fill-rule="evenodd" clip-rule="evenodd" fill="#2A1F1C" d="M352.905,168.193c-26.382-3.493-52.76-6.998-79.141-10.493
		c-1.556-0.207-3.85-0.212-3.778-2.054c0.105-2.747,2.553-1.924,4.249-1.694c26.37,3.558,52.738,7.144,79.104,10.734
		c1.455,0.197,3.693-0.213,3.402,2.186C356.455,169.249,354.407,168.377,352.905,168.193z"/>
	<path fill-rule="evenodd" clip-rule="evenodd" fill="#2A1F1C" d="M349.693,95.883c-0.723,2.779-3.059,2.35-4.9,2.827
		c-19.605,5.08-39.224,10.109-58.813,15.256c-5,1.314-9.902,3.021-14.869,4.481c-1.341,0.394-3.127,2.289-4.029,0.014
		c-1.053-2.654,1.545-2.936,3.117-3.398c11.659-3.424,23.304-6.922,35.038-10.06c13.26-3.548,26.605-6.76,39.924-10.072
		C346.734,94.54,348.616,93.308,349.693,95.883z"/>
	<path fill-rule="evenodd" clip-rule="evenodd" fill="#251A17" d="M260.315,51.762c0.029,8.472-4.283,15.167-9.913,15.392
		c-5.797,0.232-10.604-6.861-10.52-15.527c0.082-8.345,4.707-15.078,10.321-15.024C255.842,36.658,260.287,43.322,260.315,51.762z"
		/>
	<path fill-rule="evenodd" clip-rule="evenodd" fill="#261B18" d="M225.772,52.097c-0.013,8.32-4.551,15.137-10.157,15.261
		c-5.797,0.126-10.666-7.147-10.479-15.656c0.182-8.352,4.923-15.075,10.523-14.927C221.214,36.924,225.786,43.85,225.772,52.097z"
		/>
	<path fill-rule="evenodd" clip-rule="evenodd" fill="#FDFAFA" d="M227.291,81.419c5.329,0.253,8.234,2.977,8.266,7.773
		c0.031,4.782-2.823,7.875-7.586,7.832c-4.362-0.042-7.048-2.695-7.295-7.355C220.403,84.55,223.301,82.191,227.291,81.419z"/>
	<path fill-rule="evenodd" clip-rule="evenodd" fill="#FEFEFE" d="M233.191,439.482c-18.838-0.628-36.646-4.629-51.332-18.022
		c-11.216-10.229-17.299-23.098-17.817-38.753c-0.133-4.063,0.938-4.819,5.01-4.392c42.946,4.519,85.938,4.946,128.889,0.104
		c4.045-0.457,4.514,0.647,4.402,4.054c-0.605,18.535-9.188,32.487-23.182,43.121C265.518,435.962,249.714,439.049,233.191,439.482z
		"/>
	<path fill-rule="evenodd" clip-rule="evenodd" fill="#F6F6F6" d="M252.616,49.54c-0.206,3.229-1.172,6.189-4.455,6.121
		c-3.641-0.076-4.611-3.18-4.447-6.549c0.147-3.109,1.229-5.738,4.706-5.533C251.955,43.786,252.336,46.837,252.616,49.54z"/>
	<path fill-rule="evenodd" clip-rule="evenodd" fill="#F5F4F4" d="M221.141,49.48c-0.058,3.551-1.214,6.29-4.338,6.346
		c-3.654,0.067-4.651-3.135-4.583-6.326c0.061-2.869,0.917-5.84,4.338-5.843C220.338,43.655,221.031,46.711,221.141,49.48z"/>
</g>
</svg>
