<?xml version="1.0" encoding="UTF-8" standalone="no"?>
<!-- Generator: Adobe Illustrator 24.0.1, SVG Export Plug-In . SVG Version: 6.00 Build 0)  -->

<svg
   version="1.1"
   id="Layer_1"
   x="0px"
   y="0px"
   width="1000px"
   height="1000px"
   viewBox="0 0 1000 1000"
   style="enable-background:new 0 0 1000 1000;"
   xml:space="preserve"
   sodipodi:docname="initEdit.svg"
   inkscape:version="1.2.1 (9c6d41e410, 2022-07-14)"
   xmlns:inkscape="http://www.inkscape.org/namespaces/inkscape"
   xmlns:sodipodi="http://sodipodi.sourceforge.net/DTD/sodipodi-0.dtd"
   xmlns="http://www.w3.org/2000/svg"
   xmlns:svg="http://www.w3.org/2000/svg"><defs
   id="defs993" /><sodipodi:namedview
   id="namedview991"
   pagecolor="#ffffff"
   bordercolor="#000000"
   borderopacity="0.25"
   inkscape:showpageshadow="2"
   inkscape:pageopacity="0.0"
   inkscape:pagecheckerboard="0"
   inkscape:deskcolor="#d1d1d1"
   showgrid="false"
   inkscape:zoom="0.81454783"
   inkscape:cx="246.76267"
   inkscape:cy="529.74176"
   inkscape:window-width="1920"
   inkscape:window-height="1001"
   inkscape:window-x="-9"
   inkscape:window-y="-9"
   inkscape:window-maximized="1"
   inkscape:current-layer="illustration" />
<g
   id="illustration"
   style="fill:#000000"
   inkscape:label="illustration">
	
	
	
	
	
	
	
	
	
	
	
	
	
	
	
	
	
	
	
	
	
	
	
	
	
	
	
	
	
	
	
<path
   id="パス_3726"
   class="st2"
   d="m 557.53092,218.44103 c 6.15342,0.17457 12.49109,2.09487 17.61279,6.91307 2.94777,2.75823 4.67955,6.07511 4.60586,10.12518 -0.14737,5.09751 -3.79522,10.26485 -8.51162,11.87091 -3.27936,1.11726 -6.48504,0.55864 -9.54333,-0.76812 -1.06855,-0.45388 -2.10028,-0.9776 -3.02145,-1.64098 -1.25278,-0.87286 -2.50558,-0.9776 -3.97945,-0.52372 -2.94775,0.94269 -6.00605,1.32676 -9.06433,0.55864 -4.79009,-1.18709 -7.33252,-4.46905 -8.32739,-8.83335 -1.54757,-6.73849 1.58441,-12.3248 8.47478,-15.46709 3.38991,-1.57115 7.03775,-2.23454 11.75414,-2.23454 z"
   style="fill:#fdfdfd;stroke-width:0.358677"
   sodipodi:insensitive="true" /><g
   id="g2186"><path
     d="m 592.05424,505.26763 v -18.32471 h 47.19221 v -0.001 -157.65033 c 0,-27.35148 -21.04625,-49.67863 -47.19328,-49.67863 v 0.2678 c -5.89278,-1.91829 -22.85681,-7.44014 -29.89388,-9.73045 l -12.65624,48.82145 -24.75688,4.88651 6.32815,25.42422 -31.08503,83.29709 v -39.3868 l -16.38712,-43.90805 6.32811,-25.42422 -24.75684,-4.88651 -12.65417,-48.82369 -29.89494,9.73045 v -0.2678 c -26.06399,0 -47.19324,22.23975 -47.19324,49.67863 v 157.65146 h 47.19217 v 18.32469 h -47.19217 v 29.11405 c 0,3.37271 2.59831,6.10786 5.80229,6.10786 h 35.58864 c 3.20935,0 5.80231,-2.7385 5.80231,-6.10786 0,3.37383 2.59834,6.10786 5.8023,6.10786 58.28371,0 78.91268,-54.13039 78.91268,-54.13039 13.51842,32.18422 44.07334,54.13039 78.91262,54.13039 3.20402,0 5.80231,-2.73403 5.80231,-6.10786 0,3.37048 2.59509,6.10786 5.8023,6.10786 h 35.58867 c 3.20396,0 5.80231,-2.73403 5.80231,-6.10786 V 505.26771 Z M 576.96787,389.93871 h -30.94664 v -18.32247 h 30.94664 z"
     id="path17"
     style="stroke-width:1.09212" /><path
     d="m 510.10222,522.80791 c -36.25122,46.8074 -96.06314,42.4621 -97.91062,42.4621 v 326.8437 c 0,4.32647 2.96256,7.83416 6.61663,7.83416 h 48.36712 c 3.2646,0 6.04091,-2.81933 6.53943,-6.64028 42.25371,-276.04754 40.16817,-174.32754 38.70104,-350.09178 -2.13702,0 35.20027,26.89829 -2.31363,-20.4079 z"
     id="path9"
     style="stroke-width:1.23558"
     sodipodi:nodetypes="scsssccss" /><path
     d="m 512.86383,520.80792 c 10.76287,93.94851 -22.96763,-157.85131 40.08847,377.72301 0.54869,3.8954 3.61161,6.76977 7.21444,6.76977 h 53.35985 c 4.03127,0 7.29963,-3.57609 7.29963,-7.98691 l 0.0426,-333.21182 c -2.35764,0 -66.6187,4.93442 -108.00499,-43.29405 z"
     id="path9-4"
     style="stroke-width:1.31037"
     sodipodi:nodetypes="ccssccsc" /><rect
     style="fill:#000000"
     id="rect805"
     width="259.1842"
     height="60.66013"
     x="115.8057"
     y="279.40424" /><rect
     style="fill:#000000"
     id="rect807"
     width="251.83145"
     height="58.821945"
     x="643.36505"
     y="279.40424" /><g
     id="g982"
     transform="matrix(0.34060793,0,0,0.35010318,413.89517,15.768373)"><path
       style="fill:#144566"
       d="m 404,308.4 c -4.8,-96 -73.6,-164 -157.6,-164 -84,0 -152.8,68 -157.6,164 z"
       id="path920" /><g
       id="g926">
	<path
   style="fill:#00233f"
   d="M 246.4,308.4 H 404 c -5.6,-100 -75.2,-164 -159.2,-164"
   id="path922" />
	<path
   style="fill:#00233f"
   d="m 492.8,332.4 c 0,8.8 -7.2,16 -16,16 H 16.8 C 8,348.4 0,341.2 0,332.4 v 0 c 0,-8.8 7.2,-16 16.8,-16 H 476 c 8.8,0 16.8,7.2 16.8,16 z"
   id="path924" />
</g><g
       id="g928">
</g><g
       id="g930">
</g><g
       id="g932">
</g><g
       id="g934">
</g><g
       id="g936">
</g><g
       id="g938">
</g><g
       id="g940">
</g><g
       id="g942">
</g><g
       id="g944">
</g><g
       id="g946">
</g><g
       id="g948">
</g><g
       id="g950">
</g><g
       id="g952">
</g><g
       id="g954">
</g><g
       id="g956">
</g></g><g
     id="g1040"
     transform="matrix(0.16870574,0,0,0.15662245,456.53866,119.59941)"><g
       id="g986">
	<path
   d="m 469.4,218.5 c -1.3,0 -2.5,-0.8 -2.8,-1.9 -12.6,-45.2 -54,-76.7 -100.8,-76.7 -1.5,0 -2.9,0 -4.4,0.1 -36.4,1.5 -69.3,22.3 -87,53.9 -9.3,-4 -19.4,-6 -29.7,-6 -10.2,0 -20.2,2 -29.5,6 -18.3,-33.1 -53.1,-54 -91.6,-54 -46.8,0 -88.2,31.5 -100.8,76.7 -0.3,1.2 -1.5,2 -2.8,2 H 0 v 52.2 h 20 c 1.3,0 2.5,0.8 2.8,1.9 12.6,45.2 54,76.7 100.8,76.7 1.5,0 2.9,0 4.4,-0.1 25.2,-1 49.2,-11.3 67.7,-29 18,-17.2 29.3,-39.9 31.9,-64.2 3.1,-6.5 9.8,-10.8 17.1,-10.8 7.2,0 13.7,4.1 16.9,10.5 2.7,25.2 14.4,48.6 33.2,65.9 19.4,17.9 44.6,27.8 71,27.8 46.8,0 88.2,-31.5 100.8,-76.7 0.3,-1.2 1.5,-2 2.8,-2 h 20 v -52.2 h -20 z m -50.1,26.1 c 0,29.5 -24,53.5 -53.5,53.5 -29.5,0 -53.5,-24 -53.5,-53.5 0,-29.5 24,-53.5 53.5,-53.5 29.5,0 53.5,24 53.5,53.5 z m -242.3,0 c 0,29.5 -24,53.5 -53.5,53.5 -29.5,0 -53.5,-24 -53.5,-53.5 0,-29.5 24,-53.5 53.5,-53.5 29.6,0 53.5,24 53.5,53.5 z"
   id="path984" />
</g><g
       id="g988">
</g><g
       id="g990">
</g><g
       id="g992">
</g><g
       id="g994">
</g><g
       id="g996">
</g><g
       id="g998">
</g><g
       id="g1000">
</g><g
       id="g1002">
</g><g
       id="g1004">
</g><g
       id="g1006">
</g><g
       id="g1008">
</g><g
       id="g1010">
</g><g
       id="g1012">
</g><g
       id="g1014">
</g><g
       id="g1016">
</g></g></g></g>
<g
   id="skeleton_1_"
   sodipodi:insensitive="true"
   style="opacity:0.25">
	<circle
   id="rightShoulder"
   cx="392.79999"
   cy="294.29999"
   r="8.1999998" />
	<circle
   id="rightElbow"
   cx="289.29999"
   cy="294.39999"
   r="8.1999998" />
	
		<circle
   id="rightWrist"
   transform="matrix(0.9951,-0.09853767,0.09853767,0.9951,-29.0274,13.8698)"
   cx="125.9"
   cy="300.79999"
   r="8.1999998" />
	<circle
   id="rightHip"
   cx="443.10001"
   cy="510.10001"
   r="8.1999998" />
	<circle
   id="rightKnee"
   cx="449.5"
   cy="670.29999"
   r="8.1999998" />
	<circle
   id="rightAnkle"
   cx="449.5"
   cy="878.29999"
   r="8.1999998" />
	<circle
   id="leftShoulder"
   cx="605.70001"
   cy="294.29999"
   r="8.1999998" />
	<circle
   id="leftElbow"
   cx="710.09998"
   cy="294"
   r="8.1999998" />
	<circle
   id="leftWrist"
   cx="873.5"
   cy="300.29999"
   r="8.1999998" />
	<circle
   id="leftHip"
   cx="559.5"
   cy="509.29999"
   r="8.1999998" />
	<circle
   id="leftKnee"
   cx="559.5"
   cy="670.29999"
   r="8.1999998" />
	<circle
   id="leftAnkle"
   cx="559.5"
   cy="878.29999"
   r="8.1999998" />
	<polygon
   style="fill:none;stroke:#000000;stroke-miterlimit:10"
   points="443,510.4 559.4,509.6 605.6,294.6 392.7,294.6 "
   id="polygon886" />
	<polyline
   style="fill:none;stroke:#000000;stroke-miterlimit:10"
   points="391.7,294.6 289,294.6 125.7,300.9  "
   id="polyline888" />
	<polyline
   style="fill:none;stroke:#000000;stroke-miterlimit:10"
   points="607.1,294.2 710.3,294.2 873.6,300.6  "
   id="polyline890" />
	<polyline
   style="fill:none;stroke:#000000;stroke-miterlimit:10"
   points="443,510.4 449.4,670.6 449.4,878.6  "
   id="polyline892" />
	<polyline
   style="fill:none;stroke:#000000;stroke-miterlimit:10"
   points="559.4,509.6 559.4,670.6 559.4,878.6  "
   id="polyline894" />
	<circle
   id="rightEye0"
   cx="468.60001"
   cy="160.2"
   r="0.80000001" />
	<circle
   id="rightBrow1"
   cx="466.39999"
   cy="148.3"
   r="0.80000001" />
	<circle
   id="rightBrow4"
   cx="489.70001"
   cy="151.3"
   r="0.80000001" />
	<circle
   id="nose1"
   cx="497.60001"
   cy="161.2"
   r="0.80000001" />
	<circle
   id="rightBrow3"
   cx="479.89999"
   cy="147.3"
   r="0.80000001" />
	<circle
   id="rightEye1"
   cx="473.79999"
   cy="156.5"
   r="0.80000001" />
	<circle
   id="rightBrow0"
   cx="462.39999"
   cy="152"
   r="0.80000001" />
	<circle
   id="rightBrow2"
   cx="472.60001"
   cy="147.3"
   r="0.80000001" />
	<circle
   id="rightEye5"
   cx="473.79999"
   cy="162.5"
   r="0.80000001" />
	<circle
   id="rightEye2"
   cx="480.10001"
   cy="156.5"
   r="0.80000001" />
	<circle
   id="rightEye3"
   cx="485.29999"
   cy="160.7"
   r="0.80000001" />
	<circle
   id="nose0"
   cx="497.60001"
   cy="155.39999"
   r="0.80000001" />
	<circle
   id="nose3"
   cx="497.60001"
   cy="173.8"
   r="0.80000001" />
	<circle
   id="rightNose0"
   cx="486.89999"
   cy="178.3"
   r="0.80000001" />
	<circle
   id="rightMouthCorner"
   cx="480.89999"
   cy="200.39999"
   r="0.80000001" />
	<circle
   id="rightNose1"
   cx="492.10001"
   cy="178.3"
   r="0.80000001" />
	<circle
   id="rightUpperLipTop0"
   cx="487.79999"
   cy="197"
   r="0.80000001" />
	<circle
   id="nose2"
   cx="497.60001"
   cy="166.7"
   r="0.80000001" />
	<circle
   id="nose4"
   cx="497.60001"
   cy="179.10001"
   r="0.80000001" />
	<circle
   id="upperLipTopMid"
   cx="498.39999"
   cy="196.8"
   r="0.80000001" />
	<circle
   id="rightUpperLipTop1"
   cx="494.29999"
   cy="195.89999"
   r="0.80000001" />
	<path
   id="rightMiddleLip"
   d="m 484.5,199.9 c 0.4,0 0.8,0.4 0.8,0.8 0,0.4 -0.4,0.8 -0.8,0.8 -0.4,0 -0.8,-0.4 -0.8,-0.8 0,-0.4 0.4,-0.8 0.8,-0.8 z" />
	<circle
   id="lowerLipBottomMid"
   cx="498.39999"
   cy="210"
   r="0.80000001" />
	<circle
   id="upperLipBottomMid"
   cx="498.39999"
   cy="200.39999"
   r="0.80000001" />
	<circle
   id="lowerLipTopMid"
   cx="498.39999"
   cy="203.5"
   r="0.80000001" />
	<circle
   id="rightUpperLipBottom1"
   cx="494.5"
   cy="199.89999"
   r="0.80000001" />
	<circle
   id="rightLowerLipTop0"
   cx="494.5"
   cy="202.8"
   r="0.80000001" />
	<circle
   id="rightLowerLipBottom1"
   cx="494.29999"
   cy="209.5"
   r="0.80000001" />
	<circle
   id="rightLowerLipBottom0"
   cx="487.29999"
   cy="206.7"
   r="0.80000001" />
	<circle
   id="rightEye4"
   cx="480.10001"
   cy="161.7"
   r="0.80000001" />
	<circle
   id="jawMid"
   cx="498.39999"
   cy="235.8"
   r="0.80000001" />
	<circle
   id="rightJaw7"
   cx="483.39999"
   cy="232.60001"
   r="0.80000001" />
	<circle
   id="rightJaw6"
   cx="473.39999"
   cy="225.89999"
   r="0.80000001" />
	<circle
   id="rightJaw5"
   cx="461.79999"
   cy="213.39999"
   r="0.80000001" />
	<circle
   id="rightJaw4"
   cx="455"
   cy="193.39999"
   r="0.80000001" />
	<circle
   id="rightJaw3"
   cx="454.20001"
   cy="171.7"
   r="0.80000001" />
	<circle
   id="rightJaw2"
   cx="454.20001"
   cy="162.2"
   r="0.80000001" />
	<circle
   id="rightJaw1"
   cx="455"
   cy="150.5"
   r="0.80000001" />
	<circle
   id="rightJaw0"
   cx="457.5"
   cy="141.2"
   r="0.80000001" />
	<circle
   id="topMid"
   cx="498.60001"
   cy="115.1"
   r="0.80000001" />
	<circle
   id="leftTop0"
   cx="518.29999"
   cy="117.6"
   r="0.80000001" />
	<circle
   id="leftTop1"
   cx="530.90002"
   cy="127.1"
   r="0.80000001" />
	<circle
   id="leftEye0"
   cx="528.20001"
   cy="160.2"
   r="0.80000001" />
	<circle
   id="leftBrow1"
   cx="530.09998"
   cy="148.7"
   r="0.80000001" />
	<circle
   id="leftBrow4"
   cx="506.5"
   cy="150.8"
   r="0.80000001" />
	<circle
   id="leftBrow3"
   cx="516.5"
   cy="147.60001"
   r="0.80000001" />
	<circle
   id="leftEye1"
   cx="523"
   cy="156.5"
   r="0.80000001" />
	<circle
   id="leftBrow0"
   cx="534.09998"
   cy="151.60001"
   r="0.80000001" />
	<circle
   id="leftBrow2"
   cx="523.79999"
   cy="147.2"
   r="0.80000001" />
	<circle
   id="leftEye5"
   cx="523"
   cy="162.5"
   r="0.80000001" />
	<circle
   id="leftEye2"
   cx="516.70001"
   cy="156.5"
   r="0.80000001" />
	<circle
   id="leftEye3"
   cx="511.5"
   cy="160.7"
   r="0.80000001" />
	<circle
   id="leftNose0"
   cx="508"
   cy="178.3"
   r="0.80000001" />
	<circle
   id="leftMouthCorner"
   cx="515.90002"
   cy="200.39999"
   r="0.80000001" />
	<circle
   id="leftNose1"
   cx="503.20001"
   cy="178.3"
   r="0.80000001" />
	<circle
   id="leftUpperLipTop0"
   cx="509"
   cy="197"
   r="0.80000001" />
	<circle
   id="leftUpperLipTop1"
   cx="502.60001"
   cy="195.89999"
   r="0.80000001" />
	<path
   id="leftMiddleLip"
   d="m 512.3,199.9 c 0.4,0 0.8,0.4 0.8,0.8 0,0.4 -0.4,0.8 -0.8,0.8 -0.4,0 -0.8,-0.4 -0.8,-0.8 0,-0.4 0.4,-0.8 0.8,-0.8 z" />
	<circle
   id="leftUpperLipBottom1"
   cx="502.39999"
   cy="199.89999"
   r="0.80000001" />
	<circle
   id="leftLowerLipTop0"
   cx="502.39999"
   cy="202.8"
   r="0.80000001" />
	<circle
   id="leftLowerLipBottom1"
   cx="502.60001"
   cy="209.5"
   r="0.80000001" />
	<circle
   id="leftLowerLipBottom0"
   cx="509.5"
   cy="206.7"
   r="0.80000001" />
	<circle
   id="leftEye4"
   cx="516.70001"
   cy="161.7"
   r="0.80000001" />
	<circle
   id="leftJaw7"
   cx="513.20001"
   cy="233"
   r="0.80000001" />
	<circle
   id="leftJaw6"
   cx="523.20001"
   cy="226.3"
   r="0.80000001" />
	<circle
   id="leftJaw5"
   cx="534.79999"
   cy="213.7"
   r="0.80000001" />
	<circle
   id="leftJaw4"
   cx="541.59998"
   cy="193.7"
   r="0.80000001" />
	<circle
   id="leftJaw3"
   cx="542.40002"
   cy="172.10001"
   r="0.80000001" />
	<circle
   id="leftJaw2"
   cx="542.40002"
   cy="162.5"
   r="0.80000001" />
	<circle
   id="leftJaw1"
   cx="541.59998"
   cy="150.8"
   r="0.80000001" />
	<circle
   id="leftJaw0"
   cx="539.09998"
   cy="141.60001"
   r="0.80000001" />
	<polyline
   style="fill:none;stroke:#000000;stroke-miterlimit:10"
   points="498.4,115.1 478.6,117.6 466.1,127.1 457.5,141.2    455,150.5 454.2,162.2 454.2,171.7 455,193.4 461.8,213.4 473.4,225.9 483.4,232.6 498.4,235.8 513.2,233 523.2,226.3 534.8,213.7    541.6,193.7 542.4,172.1 542.4,162.5 541.6,150.8 539.1,141.6 530.9,127.1 518.3,117.6 498.4,115.1  "
   id="polyline967" />
	<polyline
   style="fill:none;stroke:#000000;stroke-miterlimit:10"
   points="462.4,152 466.4,148.3 472.6,147.3 479.9,147.3    489.7,151.3  "
   id="polyline969" />
	<polygon
   style="fill:none;stroke:#000000;stroke-miterlimit:10"
   points="473.8,156.5 480.1,156.5 485.3,160.7 480.1,161.7 473.8,162.5 468.6,160.2 "
   id="polygon971" />
	<polyline
   style="fill:none;stroke:#000000;stroke-miterlimit:10"
   points="486.9,178.3 492.1,178.3 497.6,179.1 497.6,173.8    497.6,166.7 497.6,161.2 497.6,155.4  "
   id="polyline973" />
	<polyline
   style="fill:none;stroke:#000000;stroke-miterlimit:10"
   points="533.9,151.6 529.9,148.7 523.6,147.2 516.3,147.6    506.3,150.8  "
   id="polyline975" />
	<polygon
   style="fill:none;stroke:#000000;stroke-miterlimit:10"
   points="522.7,156.5 516.4,156.5 511.3,160.7 516.4,161.7 522.7,162.5 528,160.2 "
   id="polygon977" />
	<polyline
   style="fill:none;stroke:#000000;stroke-miterlimit:10"
   points="508,178.3 503,178.3 497.6,179.1  "
   id="polyline979" />
	<polygon
   style="fill:none;stroke:#000000;stroke-miterlimit:10"
   points="487.8,197 494.3,195.9 498.4,196.8 502.6,195.9 509,197 515.9,200.4 509.5,206.7 502.4,209.5 498.4,210 494.3,209.5 487.3,206.7 480.9,200.4 "
   id="polygon981" />
	<polyline
   style="fill:none;stroke:#000000;stroke-miterlimit:10"
   points="480.9,200.4 484.5,200.7 494.5,199.9 498.4,200.4    502.4,199.9 512.3,200.7 515.9,200.4  "
   id="polyline983" />
	<polyline
   style="fill:none;stroke:#000000;stroke-miterlimit:10"
   points="480.9,200.4 484.5,200.7 494.5,202.8 498.4,203.6    502.4,202.8 512.3,200.7 515.9,200.4  "
   id="polyline985" />
	<circle
   id="rightTop0"
   cx="478.70001"
   cy="117.6"
   r="0.80000001" />
	<circle
   id="rightTop1"
   cx="466.10001"
   cy="127.1"
   r="0.80000001" />
</g>
</svg>
